<?xml version="1.0" encoding="UTF-8"?>
<svg id="Capa_1" xmlns="http://www.w3.org/2000/svg" version="1.1" viewBox="0 0 192 192">
  <!-- Generator: Adobe Illustrator 29.3.0, SVG Export Plug-In . SVG Version: 2.1.0 Build 146)  -->
  <defs>
    <style>
      .st0 {
        fill: #a19f99;
      }

      .st1 {
        fill: #c2daca;
      }

      .st2 {
        fill: #728c81;
      }

      .st3 {
        fill: #d7a819;
      }

      .st4 {
        fill: #faba02;
      }

      .st5 {
        fill: #b22551;
      }

      .st6 {
        fill: #c4b587;
      }

      .st7 {
        fill: #aac0b3;
      }

      .st8 {
        fill: #f90504;
      }

      .st9 {
        fill: #403847;
      }

      .st10 {
        fill: #f9fafa;
      }

      .st11 {
        fill: #f99b02;
      }

      .st12 {
        fill: #a2956e;
      }
    </style>
  </defs>
  <path class="st12" d="M163,172s.17.85-.5,1H29.5c-.68-.17-.45-.98-.5-1h134Z"/>
  <path class="st6" d="M172,162V31c.02.05.83-.18,1,.5v130c-.17.68-.98.45-1,.5Z"/>
  <rect class="st0" x="32" y="174" width="128" height="1"/>
  <g>
    <path class="st4" d="M170,25l1,1c.08.31-.06.68,0,1v135.5c-1.69.92-.63,2.65-1,4s-3.46,2.28-4,3.5c-.05.03.22.56-.5,1-.44.27-1.24-.18-1.5,0H27c-.3-.18-1.09.27-1.5,0-.74-.49-4.09-3.81-4.5-4.5-.13-.22.14-.69,0-1-.19-.43-.9-.63-1-1-.37-1.34.69-3.08-1-4V31.5c1.69-.92.63-2.66,1-4,.1-.37.81-.57,1-1,.14-.31-.13-.78,0-1,1.27-2.13,4.68-4.22,6.5-5.5h137c1.7,1.11,2.99,1.8,4.5,3.5.07.08-.62.8,1,1.5ZM75.5,165c1.27.35,3.48-.23,5,0,.38.06.64.96,1,1,13.19,1.36,32.27.27,46,0,.34,0,.66-.99,1-1,12.16-.25,24.35.18,36.5,0v-89.5c0-.28-3.28-3.17-4-4-3.6-4.16-17.51-15.78-19-20-.22-.62-3.04-1.51-4-1.5l-1-4c-1.21.2-1.79-.02-2.5-1H57.5l-3.5,3.5v95c1.19.84,2.39,2.88,3.5,3.5.47.26,1.31-.19,1.5,0"/>
    <path class="st3" d="M172,31v131c-.25.53.25,1.88,0,2.5-.16.39-.81.59-1,1-.14.3.13.78,0,1-.36.61-2.85,3.07-3.5,3.5-.41.27-1.21-.18-1.5,0,.54-1.22,3.63-2.17,4-3.5s-.69-3.08,1-4V27l1,.5c.21,1-.31,2.84,0,3.5Z"/>
    <path class="st3" d="M164,171c-.06.04-.16.37-1,1H29c-.34-.15-1.01.22-1.5,0-.71-.31-.45-.97-.5-1h137Z"/>
    <path class="st3" d="M171,26l-1-1c.62.27.69-.13,1,1Z"/>
    <path class="st11" d="M138,50c.96,0,3.78.88,4,1.5,1.49,4.22,15.4,15.84,19,20,.72.83,4,3.72,4,4v89.5c-12.15.18-24.34-.25-36.5,0-.34,0-.66.99-1,1-13.73.27-32.81,1.36-46,0-.36-.04-.62-.94-1-1-1.52-.23-3.73.35-5,0-2.1-.58-13.31-14.46-16.5-16.5-.26-.47.19-1.31,0-1.5h75.5c.51-1.28,2.39-.89,2.5-1s-.28-1.99,1-2.5V50Z"/>
    <g>
      <path class="st2" d="M59,147c-.19-.19-1.03.26-1.5,0-1.11-.62-2.31-2.66-3.5-3.5V48.5l3.5-3.5h77c.71.98,1.29,1.2,2.5,1l1,4v93.5c-1.28.51-.89,2.39-1,2.5s-1.99-.28-2.5,1H59ZM132,66v-14H60v14h72ZM76,76h-16v12h16v-12ZM95,76h-17v12h17v-12ZM114,76h-17v12h17v-12ZM132,76h-17v12h17v-12ZM76,93h-16v12h16v-12ZM95,93h-17v12h17v-12ZM114,93h-17v12h17v-12ZM132,93h-16v12h16v-12ZM132,122c-.55-3.2.77-8.71,0-11.5-.04-.16-1.34-1.46-1.5-1.5-.98-.27-13.02-.27-14,0-.16.04-1.46,1.34-1.5,1.5-.24.87-.24,9.13,0,10,.05.17,1.39,1.5,1.5,1.5h15.5ZM76,110h-16v12h16v-12ZM95,110h-17v12h17v-12ZM114,110h-17v12h17v-12ZM77,126h-17v13h17v-13ZM132,139c-.55-3.2.77-8.71,0-11.5-.04-.16-1.34-1.46-1.5-1.5-.98-.27-13.02-.27-14,0-.16.04-1.46,1.34-1.5,1.5-.24.87-.24,9.13,0,10,.05.17,1.39,1.5,1.5,1.5h15.5ZM95,127h-17v12h17v-12ZM113,127h-16v12h16v-12Z"/>
      <rect class="st7" x="60" y="52" width="36" height="14"/>
      <rect class="st1" x="96" y="52" width="36" height="14"/>
      <rect class="st5" x="60" y="126" width="17" height="13"/>
      <path class="st4" d="M132,122h-15.5c-.11,0-1.45-1.33-1.5-1.5-.24-.87-.24-9.13,0-10,.04-.16,1.34-1.46,1.5-1.5.98-.27,13.02-.27,14,0,.16.04,1.46,1.34,1.5,1.5.77,2.79-.55,8.3,0,11.5Z"/>
      <path class="st4" d="M132,139h-15.5c-.11,0-1.45-1.33-1.5-1.5-.24-.87-.24-9.13,0-10,.04-.16,1.34-1.46,1.5-1.5.98-.27,13.02-.27,14,0,.16.04,1.46,1.34,1.5,1.5.77,2.79-.55,8.3,0,11.5Z"/>
      <rect class="st9" x="78" y="76" width="17" height="12"/>
      <rect class="st9" x="97" y="76" width="17" height="12"/>
      <rect class="st8" x="115" y="76" width="17" height="12"/>
      <rect class="st9" x="78" y="93" width="17" height="12"/>
      <rect class="st9" x="97" y="93" width="17" height="12"/>
      <rect class="st9" x="78" y="110" width="17" height="12"/>
      <rect class="st9" x="97" y="110" width="17" height="12"/>
      <rect class="st9" x="78" y="127" width="17" height="12"/>
      <rect class="st9" x="60" y="76" width="16" height="12"/>
      <rect class="st9" x="60" y="93" width="16" height="12"/>
      <rect class="st4" x="116" y="93" width="16" height="12"/>
      <rect class="st9" x="60" y="110" width="16" height="12"/>
      <rect class="st10" x="97" y="127" width="16" height="12"/>
    </g>
  </g>
</svg>